<svg width="33" height="33" viewBox="0 0 33 33" fill="none" xmlns="http://www.w3.org/2000/svg">
<path d="M21.1412 0H11.3129C2.34358 0 0.219971 2.12361 0.219971 11.0929V20.9213C0.219971 29.8906 2.34358 32.0142 11.3129 32.0142H21.1412C30.1105 32.0142 32.2342 29.8906 32.2342 20.9213V11.0929C32.2342 2.12361 30.0879 0 21.1412 0ZM26.0661 22.8408H23.7397C22.8593 22.8408 22.5872 22.1405 21.0052 20.5371C19.6272 19.2032 19.0176 19.0231 18.6788 19.0231C18.2039 19.0231 18.0679 19.1592 18.0679 19.8141V21.915C18.0679 22.4806 17.8878 22.8194 16.3965 22.8194C13.934 22.8194 11.1995 21.3281 9.27999 18.5482C6.38804 14.4824 5.59569 11.4317 5.59569 10.7995C5.59569 10.4606 5.73175 10.1445 6.3867 10.1445H8.71307C9.3 10.1445 9.52676 10.4153 9.75353 11.0476C10.9047 14.369 12.8256 17.2837 13.6166 17.2837C13.91 17.2837 14.0461 17.1476 14.0461 16.4033V12.9671C13.9554 11.385 13.119 11.2503 13.119 10.6861C13.119 10.4139 13.3458 10.1432 13.7059 10.1432H17.3662C17.8638 10.1432 18.0439 10.4139 18.0439 11.0009V15.6336C18.0439 16.1298 18.2706 16.3112 18.4054 16.3112C18.6988 16.3112 18.9483 16.1298 19.4898 15.5882C21.1626 13.7127 22.3591 10.8208 22.3591 10.8208C22.5179 10.482 22.7886 10.1658 23.3769 10.1658H25.7033C26.4036 10.1658 26.5623 10.526 26.4036 11.0236C26.1101 12.3802 23.2635 16.4006 23.2635 16.4006C23.0154 16.8074 22.9247 16.9875 23.2635 17.4411C23.5116 17.7799 24.3253 18.4802 24.8682 19.1125C25.862 20.2423 26.629 21.1907 26.8331 21.847C27.0599 22.5006 26.7197 22.8395 26.0648 22.8395L26.0661 22.8408Z" fill="#A98A5B"/>
</svg>
