<svg width="84" height="96" viewBox="0 0 84 96" fill="none" xmlns="http://www.w3.org/2000/svg">
<rect width="84" height="95.8788" rx="42" fill="#F5F0ED"/>
<path d="M53.6899 53.0038C53.234 51.8447 53.2112 50.8126 53.2887 50.7688C54.2347 49.9843 55.297 49.3313 54.9414 48.4242C54.5858 47.517 53.8449 46.577 53.405 46.4937C52.1922 46.2571 52.0486 46.7128 52.0486 46.7128L49.2379 40.825C49.2379 40.825 50.0586 39.9003 50.1247 39.69C50.1908 39.4796 48.9119 38.0597 48.9416 37.8537C48.9712 37.6477 50.8405 36.0722 50.3344 34.5778C49.8283 33.0834 49.2516 31.0302 42.9007 29.7199C42.9007 29.7199 42.9508 29.4175 43.042 28.7426C43.1332 28.0677 43.8444 27.0356 42.9714 25.8611C42.0983 24.6866 42.1507 25.0044 41.9159 24.5464C41.6264 23.8452 40.9562 23.7576 40.2313 23.7576C39.6409 23.7576 39.6797 24.1542 39.1827 24.1542C38.8921 24.1504 38.6041 24.2085 38.3397 24.3245C38.0752 24.4404 37.8407 24.6112 37.6531 24.8247C37.2542 25.3111 36.992 25.7231 36.9442 26.398C36.8963 27.0729 36.6866 27.1934 36.8963 27.7544C37.1812 28.5279 37.4639 28.7316 37.4639 28.7316L37.5825 28.438C37.518 28.3286 37.4631 28.2143 37.4183 28.0962C37.3447 27.9447 37.2815 27.7888 37.2291 27.6295C37.2291 27.6295 37.3636 27.5725 37.6326 27.1189C37.9016 26.6653 38.5285 26.3695 39.2123 26.4155C39.8962 26.4615 40.441 26.5908 40.4274 26.948C40.4481 26.8633 40.4535 26.7759 40.4433 26.6894C40.6394 26.8078 40.6485 27.1277 40.6508 27.0992C40.6714 26.9771 40.6636 26.8521 40.628 26.7333C41.1332 27.0552 41.5294 27.5122 41.7678 28.048C41.9439 28.4896 42.0589 28.9515 42.1097 29.4219C42.0823 29.6038 42.1097 29.6892 42.1097 29.7747C42.0481 30.0705 42.3513 30.6512 42.3513 30.6512C42.6796 32.7964 42.6682 35.4061 41.9319 37.1525C41.4409 35.9292 40.8652 34.7389 40.2085 33.5896L40.5322 33.2149L41.1705 33.193L41.4532 33.2719L41.9501 32.8928L41.6287 32.1565L40.9448 32.3647L40.3065 32.4326L39.9395 32.1828L39.6272 32.6211C39.4403 32.334 39.2785 32.1039 39.1531 31.944C38.6197 31.2625 37.9449 31.0149 37.7033 30.7892C37.6238 30.6455 37.5988 30.4797 37.6326 30.3203C37.6326 30.3203 30.4565 32.1719 31.113 40.8031C31.2042 42.0214 32.8592 43.4172 33.5089 43.529C34.1585 43.6407 30.7916 51.4787 30.5454 60.4518C32.6426 62.5532 36.0506 63.4603 36.0506 63.4603L36.8188 68.6733C36.8188 68.6733 34.7467 71.2655 35.1935 71.8527C35.6403 72.44 35.9868 71.9229 36.6364 71.6336C37.2861 71.3444 37.7922 69.988 37.7922 69.988L38.2162 70.2071L38.7633 69.9245L38.4077 68.6755C39.3976 67.4559 39.9524 65.9622 39.9897 64.4157C39.9997 64.291 39.9997 64.1657 39.9897 64.041C39.9897 64.041 42.2921 64.006 42.4813 63.938C42.6705 63.8701 42.4129 62.3253 42.3422 61.394C42.2465 60.7805 42.5314 60.2809 42.5314 61.1552C42.5314 62.31 43.7875 67.7026 43.7829 67.7091C43.7783 67.7157 44.1385 67.6303 44.1385 67.6303C44.1385 67.6303 43.947 68.5637 44.0359 68.636C44.1248 68.7083 44.909 69.0743 44.909 69.0743L45.317 68.7894C45.317 68.7894 45.9097 69.6528 46.1742 69.8412C46.4386 70.0296 48.7455 70.6278 49.1376 70.2948C49.5297 69.9617 49.434 69.7842 48.8116 69.4424C48.1893 69.1006 45.7388 67.33 45.7388 67.33L46.7144 63.594C46.7144 63.594 49.6779 63.0791 50.3367 62.1872C50.8792 61.4641 48.0708 47.9706 48.0708 47.9706L48.8709 48.6586C48.8723 49.0347 48.9322 49.4084 49.0487 49.7674C49.2596 50.4183 49.6976 50.9794 50.2888 51.356C50.7607 51.6409 51.4286 51.7658 52.4795 51.2026C52.4795 51.2026 54.4285 55.9664 56.0174 59.9938C57.7567 64.4135 58.3539 66.9838 58.3539 66.9838C58.3539 66.9838 58.5454 66.9838 58.5454 66.94C58.0561 64.581 57.3575 62.2667 56.4573 60.0223C55.7962 58.2277 54.5311 55.0439 53.7036 52.9841" fill="#789984"/>
</svg>
