<svg width="33" height="33" viewBox="0 0 33 33" fill="none" xmlns="http://www.w3.org/2000/svg">
<circle cx="16.3975" cy="16.3975" r="16.3975" fill="#A98A5B"/>
<path d="M22.912 19.4311L21.9483 18.7526C21.5283 18.4579 21.018 18.3205 20.5069 18.3645C19.9958 18.4085 19.5164 18.6311 19.1529 18.9933L18.7009 19.4455C18.5843 19.5571 18.4323 19.6241 18.2714 19.635C18.1105 19.6459 17.9509 19.6 17.8203 19.5052C17.8059 19.4908 17.7824 19.4835 17.7679 19.4691C15.779 18.3239 14.3162 16.8765 13.3217 15.0439C13.3072 15.0222 13.2928 14.9986 13.2765 14.9769C13.1855 14.844 13.1427 14.684 13.1552 14.5234C13.1677 14.3627 13.2347 14.2113 13.3452 14.0941L13.8117 13.6418C14.1732 13.2796 14.3962 12.802 14.4418 12.2922C14.4874 11.7823 14.3527 11.2727 14.0612 10.852L13.3832 9.88776C13.202 9.62609 12.9656 9.40748 12.6906 9.2474C12.4157 9.08733 12.1089 8.98971 11.792 8.96147C11.4744 8.93092 11.1539 8.97194 10.8542 9.08151C10.5544 9.19108 10.283 9.36643 10.0598 9.59467L9.15577 10.4993C8.48 11.1786 8.06152 12.072 7.97212 13.0264C7.88271 13.9807 8.12795 14.9364 8.66577 15.7295C10.914 19.0299 13.764 21.8766 17.0663 24.1204C17.595 24.4813 18.1998 24.7153 18.8336 24.8041C19.4674 24.8929 20.1132 24.8342 20.7206 24.6324C21.3191 24.4285 21.8633 24.0906 22.3117 23.6446L23.2158 22.74C23.4384 22.5151 23.6091 22.2441 23.716 21.9462C23.8229 21.6482 23.8634 21.3305 23.8346 21.0152C23.8059 20.7 23.7085 20.3948 23.5495 20.1212C23.3904 19.8475 23.1735 19.612 22.9138 19.4311H22.912Z" fill="#F5F0ED"/>
<path d="M16.3721 10.4738C17.9194 10.5911 19.3728 11.2619 20.4662 12.3636C21.5596 13.4652 22.2199 14.9241 22.3263 16.473C22.3387 16.6639 22.423 16.8429 22.5623 16.9739C22.7016 17.1049 22.8855 17.1781 23.0767 17.1786H23.1309C23.3304 17.1656 23.5165 17.0738 23.6484 16.9236C23.7803 16.7733 23.8471 16.5767 23.8343 16.3771C23.7035 14.4638 22.8878 12.6618 21.5369 11.3014C20.1859 9.94106 18.3901 9.11349 16.4788 8.97044C16.285 8.96574 16.0968 9.03593 15.9533 9.16643C15.8099 9.29693 15.7222 9.4777 15.7084 9.67121C15.6947 9.86471 15.756 10.0561 15.8796 10.2055C16.0032 10.355 16.1796 10.4511 16.3721 10.4738Z" fill="#F5F0ED"/>
<path d="M16.6061 14.1626C17.3056 14.2141 17.9627 14.5174 18.456 15.0163C18.9493 15.5152 19.2453 16.1759 19.2893 16.8763C19.3008 17.0679 19.3848 17.2478 19.5242 17.3795C19.6636 17.5113 19.8479 17.585 20.0397 17.5855H20.0867C20.2862 17.573 20.4725 17.4817 20.6047 17.3317C20.7369 17.1818 20.8043 16.9855 20.7919 16.7859C20.7248 15.7209 20.2745 14.7163 19.5242 13.958C18.7739 13.1997 17.7745 12.7389 16.7109 12.661C16.6117 12.6541 16.512 12.6668 16.4177 12.6985C16.3234 12.7301 16.2362 12.78 16.1611 12.8454C16.0096 12.9774 15.9166 13.1642 15.9027 13.3648C15.8888 13.5653 15.9551 13.7632 16.087 13.9149C16.2189 14.0665 16.4056 14.1595 16.6061 14.1735V14.1626Z" fill="#F5F0ED"/>
</svg>
