<svg width="33" height="32" viewBox="0 0 33 32" fill="none" xmlns="http://www.w3.org/2000/svg">
<path fill-rule="evenodd" clip-rule="evenodd" d="M26.2721 22.4534C25.8841 23.5381 24.3418 24.4355 23.1118 24.698C22.2698 24.8745 21.1718 25.0142 17.4722 23.5C13.3169 21.7997 7.54691 15.7432 7.54691 11.7127C7.54691 9.66093 8.7447 7.27174 10.8392 7.27174C11.8471 7.27174 12.0692 7.29115 12.4009 8.07686C12.7889 9.00256 13.7355 11.2833 13.8482 11.5171C14.3135 12.4762 13.3749 13.0376 12.6939 13.8727C12.4765 14.124 12.2302 14.3957 12.5055 14.8633C12.7792 15.3214 13.7258 16.8452 15.1168 18.0683C16.9135 19.6493 18.3705 20.1541 18.8921 20.3688C19.2801 20.5278 19.7438 20.4908 20.0271 20.1918C20.3862 19.8084 20.8321 19.1725 21.2861 18.5458C21.6065 18.0973 22.0138 18.0413 22.4405 18.2003C22.7286 18.2989 26.3912 19.9789 26.5458 20.2477C26.6601 20.4433 26.6601 21.3687 26.2721 22.4534ZM16.9039 0H16.8958C8.02022 0 0.80127 7.13198 0.80127 15.9006C0.80127 19.3775 1.93629 22.6033 3.8666 25.2197L1.86062 31.1281L8.04761 29.1755C10.5929 30.8392 13.6309 31.8012 16.9039 31.8012C25.7794 31.8012 33 24.6692 33 15.9006C33 7.13198 25.7794 0 16.9039 0Z" fill="#A98A5B"/>
</svg>
