<svg width="249" height="97" viewBox="0 0 249 97" fill="none" xmlns="http://www.w3.org/2000/svg">
<g clip-path="url(#clip0_283_37)">
<path d="M138.205 37.5081C137.525 38.3978 136.389 38.2662 136.446 37.0241C136.503 35.782 137.069 34.1769 137.721 32.7533C138.325 31.4214 139.205 30.2326 140.302 29.2655C141.452 28.3509 142 29.1659 141.805 30.0022C141.479 31.0271 141.089 32.0304 140.637 33.006C140.22 33.9527 138.885 36.6077 138.205 37.4939M92.8832 54.0538C91.8152 54.6197 90.7115 53.9043 90.9536 51.7796C91.4057 47.8185 94.1827 43.1206 94.7915 42.3163C95.2152 41.754 96.2975 40.2521 97.1555 39.825C98.0135 39.3979 98.5191 39.9247 98.5583 40.5902C98.5936 41.4252 98.4616 42.2589 98.1702 43.0423C97.9103 43.9285 99.3842 43.9 99.4127 43.9926C99.4412 44.0851 99.0994 44.9855 98.4265 46.5194C97.7536 48.0534 95.2686 52.769 92.8832 54.0538ZM195.194 53.4808C195.194 53.4808 189.498 69.5211 189.142 70.4358C188.786 71.3505 188.255 72.3292 188.996 73.283C189.462 73.8936 189.987 74.4574 190.562 74.9664C190.801 75.1763 191.214 75.3223 191.655 74.2297C192.097 73.1371 199.132 52.8188 199.132 52.8188C199.132 52.8188 217.926 49.2421 227.856 45.6333C235.795 42.7505 245.96 37.7679 248.356 29.2833C250.752 20.7987 246.166 14.6488 234.471 13.3426C222.647 12.0222 219.13 11.7019 214.829 10.6841C213.748 10.4553 212.698 10.0968 211.703 9.61638C211.322 9.44199 210.859 9.10032 210.834 10.4599C210.815 11.0277 210.926 11.5924 211.16 12.1102C211.394 12.628 211.744 13.085 212.183 13.4458C213.369 14.4495 215.769 15.3641 220.45 15.9905C230.683 17.3607 235.122 16.3144 239.768 17.7344C244.414 19.1544 246.689 21.4607 246.333 26.397C245.977 31.3333 241.274 35.12 238.821 36.6895C236.368 38.2591 232.018 41.0778 223.708 43.5157C218.122 45.167 204.985 48.1423 200.399 48.8541C200.399 48.8541 206.138 31.9561 207.032 29.4221C207.566 27.9238 209.04 24.3719 209.214 23.8381C209.389 23.3042 209.67 22.8131 209.143 22.2258C208.756 21.8154 208.342 21.4313 207.904 21.0763C207.548 20.7916 207.028 20.6421 206.633 21.5496C206.238 22.4572 205.173 25.1762 204.938 25.6496C204.586 26.571 203.984 27.3767 203.201 27.9772C201.601 29.0933 199.664 29.6226 197.718 29.4755C197.718 29.4755 199.573 24.6637 199.73 24.194C199.886 23.7242 200.242 23.0871 199.456 22.4145C199.037 22.0481 198.588 21.7183 198.113 21.4286C197.878 21.272 197.362 20.9161 196.931 21.9411C196.501 22.9661 194.842 26.9237 193.973 28.4968C193.286 29.7353 192.574 30.9881 191.481 32.6572C190.388 34.3264 188.704 36.4119 187.596 36.4119C186.489 36.4119 186.924 33.9207 187.123 33.0202C187.422 31.6892 188.59 28.5217 189.259 26.8703C189.829 25.4467 189.903 25.0446 189.341 24.5036C188.979 24.162 188.596 23.8434 188.195 23.5498C187.988 23.4039 187.269 22.8593 186.66 24.1512C186.155 25.2189 184.709 28.9915 183.698 30.9703C182.381 33.5576 180.782 36.3408 178.714 38.4726C177.108 40.1382 174.644 40.4727 175.321 36.9244C176.129 32.675 177.614 29.0947 178.197 27.5003C178.692 26.1692 179.219 25.6104 178.635 24.8595C178.228 24.3493 177.793 23.8621 177.332 23.4003C177.055 23.1263 176.382 23.0053 175.908 23.8736C175.435 24.742 173.274 29.9915 172.832 31.0592C172.109 32.7371 171.238 34.3473 170.23 35.871C169.322 37.1308 168.296 38.6683 166.719 39.8891C165.142 41.1098 163.244 41.0493 164.035 38.3694C164.825 35.6895 166.206 32.5967 166.602 31.3368C166.997 30.077 167.271 28.1836 165.416 27.3152C163.561 26.4468 160.606 29.2548 159.385 30.4791C158.164 31.7034 154.65 35.3585 153.689 36.6967C153.689 36.6967 155.034 32.7604 155.718 30.625C156.117 29.3723 156.569 28.6142 155.821 27.9843C155.074 27.3543 154.675 27.0376 154.397 26.8418C154.119 26.6461 153.411 26.2902 153.016 27.3543C152.621 28.4185 151.909 31.2158 151.321 32.675C150.734 34.1342 149.032 37.7608 148.085 39.4371C147.138 41.1134 145.984 42.7861 145.037 43.6758C144.09 44.5656 142.257 45.3307 142.374 43.053C142.492 40.7753 143.143 38.3801 143.353 37.4369C143.563 36.4938 143.709 36.0133 142.88 36.1059C142.05 36.1984 141.666 36.2803 141.666 36.2803C141.666 36.2803 143.257 33.369 143.67 31.892C144.083 30.4151 144.329 28.5644 142.848 27.7067C141.367 26.849 139.854 27.2796 138.953 27.6284C135.343 29.0235 131.38 33.732 132.345 38.5438C132.427 38.9262 132.587 39.2875 132.815 39.6048C133.044 39.9221 133.336 40.1886 133.673 40.3873C134.55 40.8136 135.556 40.8925 136.489 40.608C136.489 40.608 135.296 42.7434 134.559 43.8822C133.669 45.2418 132.544 46.5515 131.601 46.523C130.657 46.4945 130.276 45.3023 130.366 44.2346C130.455 43.1669 130.764 42.7362 130.309 42.1383C129.853 41.5404 129.718 41.2984 129.362 40.8642C129.005 40.43 128.649 40.5973 128.503 41.1917C128.358 41.786 127.88 43.8217 127.435 44.7506C126.99 45.6795 125.452 48.4306 123.825 48.3096C122.198 48.1886 122.252 45.1741 122.23 44.6403C122.056 40.8998 123.32 35.5613 123.562 34.7001C123.69 34.2303 124.003 33.8673 123.384 33.127C123.038 32.6952 122.64 32.3079 122.198 31.9739C121.874 31.7105 121.33 31.6892 120.87 32.5077C120.536 33.095 116.295 42.1597 113.828 46.644C113.202 47.7793 112.404 49.3631 111.382 49.2741C110.36 49.1851 110.724 47.1138 110.781 46.6725C110.838 46.2312 111.048 45.7827 110.514 45.2809C110.228 44.9708 109.902 44.7003 109.545 44.4766C109.428 44.4161 109.161 44.2702 108.719 45.0994C108.083 46.2589 107.369 47.3742 106.583 48.4377C105.814 49.4449 104.778 50.7511 103.343 51.6657C102.257 52.3775 100.609 52.5341 100.904 50.171C101.2 47.8078 103.963 40.4585 104.219 39.8036C104.532 38.9851 104.856 38.2413 104.07 37.6469C103.699 37.3623 103.314 37.0974 102.916 36.8533C102.439 36.5579 101.898 36.6219 101.556 37.5401C101.2 38.5117 100.933 39.2698 100.726 39.9211C100.726 39.9211 100.285 37.9138 98.7149 37.1451C97.1448 36.3764 95.2259 36.9493 93.9691 37.7537C91.897 39.0705 90.6118 41.0422 89.5473 42.9534C88.3368 45.1314 87.9843 46.5123 87.372 47.9751C86.8878 49.1353 85.9479 51.3952 84.9902 52.8153C84.0325 54.2353 82.1811 56.57 80.5541 56.3351C78.9271 56.1002 79.4682 52.8153 79.8136 51.1319C80.4936 47.8185 82.2808 42.5014 83.9933 38.1843C85.1539 35.2553 85.7521 34.0167 85.9585 33.5897C86.3359 32.8209 86.2754 32.2693 85.8197 31.8778C85.0685 31.2443 84.7053 30.9631 84.1606 30.561C83.953 30.3984 83.7098 30.2873 83.4509 30.2368C83.1921 30.1862 82.9249 30.1977 82.6714 30.2703C82.4178 30.3429 82.1851 30.4744 81.9922 30.6543C81.7993 30.8341 81.6517 31.057 81.5616 31.3048C80.8816 32.7533 79.4255 36.5436 78.8238 38.2626C78.1118 40.3695 77.1647 43.0494 76.6485 44.6688C76.118 46.3273 74.993 49.0748 74.2809 50.9077C73.5689 52.7405 72.2409 55.4311 71.1159 56.6447C69.9908 57.8584 68.3353 58.8335 67.5948 57.442C66.8543 56.0504 67.2708 53.4915 67.6268 51.9718C68.5145 48.3612 69.5839 44.7977 70.8311 41.2949C71.8422 38.6043 73.4977 34.5328 73.8537 33.6715C74.2097 32.8102 74.3557 32.0664 73.5653 31.2977C72.9687 30.6911 72.3154 30.1429 71.6143 29.6606C71.2013 29.4257 70.1617 29.5111 69.5992 30.7816C69.0367 32.0522 67.2637 36.6753 66.3772 39.2484C65.4907 41.8216 64.4582 45.3984 63.942 47.096C63.5219 48.4911 61.6065 53.7798 60.7769 55.6126C59.9474 57.4455 58.7547 59.9581 57.1206 60.9084C55.8246 61.6558 54.3578 61.0223 54.9203 57.8583C55.4828 54.6944 58.7725 43.8609 59.303 42.1739C59.8335 40.487 62.5784 32.3903 63.5753 29.3616C64.3265 27.1266 64.6434 25.8026 64.5294 24.3968C64.508 24.0325 64.4039 23.6778 64.2251 23.3596C64.0462 23.0414 63.7973 22.768 63.4971 22.5602C63.197 22.3524 62.8535 22.2156 62.4926 22.1601C62.1317 22.1047 61.763 22.132 61.4142 22.2401C59.6697 22.685 57.7507 24.2296 56.0952 25.767C52.9799 28.8686 50.054 32.1547 47.3334 35.6076C44.9374 38.7715 41.5552 43.3342 40.4301 45.1955C39.3051 47.0569 38.0661 48.5267 39.1413 49.2954C39.8356 49.7937 41.5231 48.9716 42.7514 48.1388C44.1755 47.1743 45.1688 46.4554 45.6245 46.1244C46.4968 45.498 47.1269 44.2346 47.8034 42.8964C48.3268 41.8572 49.434 39.8642 50.0535 38.889C50.673 37.9138 53.2791 34.0381 54.6141 32.3547C55.3608 31.3763 56.1707 30.4478 57.0387 29.5751C57.3627 29.2477 58.2492 28.7174 57.9216 30.0485C57.5941 31.3795 56.8108 33.9349 56.1237 35.8781C55.2942 38.227 51.8692 48.7723 51.0112 52.3419C49.9111 56.9295 49.4518 60.9511 50.3596 63.5349C51.1785 65.8696 53.7917 66.9195 56.6542 65.0297C59.1143 63.3997 61.4427 59.6165 62.8454 56.7195C62.8454 56.7195 63.027 59.9226 64.2695 61.9441C65.3376 63.6559 67.9473 64.3357 70.678 61.2928C72.3069 59.4381 73.6737 57.3688 74.7402 55.1429C74.7896 55.8702 74.8823 56.594 75.0179 57.3103C75.2137 58.257 76.2782 61.581 79.9061 60.5134C83.534 59.4457 86.4605 54.5485 87.2865 53.1249C87.2865 53.1249 87.5963 55.2105 88.4899 56.4846C89.5045 57.9331 92.0217 58.5417 94.3785 56.3565C95.3667 55.3871 96.2553 54.3212 97.0309 53.1747C97.2477 52.8192 97.4855 52.477 97.743 52.1498C97.9174 51.9576 98.0313 52.0074 98.099 52.4451C98.188 52.9434 98.3909 55.1393 99.9325 55.9863C101.157 56.659 102.781 56.175 104.561 54.5378C106.1 53.0517 107.418 51.3535 108.477 49.4947C108.517 50.3823 108.664 51.2618 108.915 52.1142C109.136 52.8016 109.565 53.4035 110.143 53.8367C110.588 54.1287 111.108 54.2842 111.64 54.2842C112.172 54.2842 112.693 54.1287 113.137 53.8367C115.793 52.228 119.233 45.1101 119.546 44.3627C119.546 44.3627 119.546 47.3772 119.991 49.2314C120.436 51.0856 121.315 51.9967 122.672 52.1889C124.132 52.3989 125.905 50.9255 126.734 49.7439C127.208 49.0738 127.642 48.3762 128.034 47.6548C128.094 47.5551 128.147 47.4555 128.204 47.4911C128.261 47.5266 128.283 47.6192 128.39 48.1281C128.55 48.8755 128.984 50.0606 129.814 50.534C130.643 51.0073 132.797 51.2244 134.798 48.5694C136.044 46.8592 137.14 45.0445 138.073 43.1455C138.785 41.7219 139.498 40.2129 139.348 41.7896C139.198 43.3662 139.067 45.3236 139.526 46.5515C139.985 47.7793 141.552 48.7153 143.667 47.6192C145.6 46.6155 147.198 44.4161 149.028 41.665C149.028 41.665 148.48 43.8004 148.316 44.4659C148.152 45.1314 147.882 45.7293 148.551 46.4376C149.548 47.4839 150.627 48.2171 150.997 46.4376C151.176 45.5029 151.414 44.5805 151.709 43.6758C152.46 42.2344 153.316 40.8509 154.273 39.5367C155.141 38.4299 158.424 34.7001 159.755 33.5043C161.215 32.1945 162.557 31.9276 161.845 34.2943C161.133 36.6611 160.717 37.711 160.421 39.6969C160.147 41.576 160.261 43.5406 162.354 44.2275C164.665 44.9855 167.641 42.5405 169.218 40.5119C170.408 38.9815 171.02 38.074 171.152 37.8711C171.408 37.4761 171.864 36.8034 171.899 37.9209C171.935 38.9068 171.928 41.1561 173.793 42.1917C175.659 43.2274 178.112 41.9568 179.689 40.6329C181.059 39.3768 182.307 37.9946 183.417 36.5045C183.773 35.992 184.303 35.1521 184.342 36.2589C184.382 37.3657 184.342 39.5403 185.706 40.2094C187.07 40.8785 188.729 39.7609 189.701 38.59C190.373 37.7763 190.995 36.9217 191.563 36.0311C191.826 35.6254 191.794 35.6752 191.698 35.9635C191.324 37.1166 191.342 37.3017 191.719 37.8498C192.046 38.3084 192.403 38.7448 192.787 39.1559C193.022 39.43 193.791 39.8143 194.265 38.7537C194.738 37.6932 196.476 33.0594 196.476 33.0594C197.687 32.9635 198.888 32.7707 200.068 32.4828C201.182 32.1642 202.239 31.673 203.201 31.0272L196.853 49.3987C160.325 55.3991 80.166 68.4143 32.2131 80.4472C20.1082 83.483 5.02705 87.7823 1.92607 89.1489C0.501976 89.786 -0.29552 90.4266 0.103227 91.0957C0.501975 91.7648 1.24963 92.142 3.61363 92.2844C8.66995 92.5125 13.7353 92.4459 18.7838 92.0851C20.3539 91.9356 22.1661 91.4907 25.0748 90.6045C30.3368 88.9959 35.0862 87.6541 39.8747 86.4192C64.9424 79.9525 108.879 68.7524 195.194 53.4808Z" fill="#A98A5B"/>
<path d="M194.721 2.43071C202.379 0.843406 212.707 0.120937 216.289 0.031962C219.87 -0.0570125 220.482 0.0497563 221.013 0.0924641C221.168 0.0988693 221.32 0.144285 221.453 0.224525C221.586 0.304764 221.697 0.417239 221.775 0.55157C221.896 0.701047 222.131 1.00712 221.575 1.03915C219.756 1.14948 217.374 1.33099 216.235 1.39505C213.113 1.573 204.611 2.70475 200.064 3.58382C185.325 6.43101 165.349 13.4778 162.981 14.2608C160.823 14.9726 155.504 16.8517 154.689 17.1079C153.481 17.433 152.24 17.6217 150.99 17.6703C149.128 17.7842 146.362 17.6703 145.667 17.6881C144.218 17.7343 143.076 16.7805 144.66 16.1897C146.244 15.5989 172.092 7.12145 194.71 2.44139" fill="#A98A5B"/>
<g opacity="0.88">
<mask id="mask0_283_37" style="mask-type:luminance" maskUnits="userSpaceOnUse" x="98" y="88" width="68" height="9">
<path d="M165.38 88.4585H98.1523V96.9965H165.38V88.4585Z" fill="white"/>
</mask>
<g mask="url(#mask0_283_37)">
<path d="M161.995 96.9965V91.4409H165.38V90.1633H160.542V96.9965H161.995ZM158.05 96.9965V90.1633H156.594V92.8467H153.365V90.1633H151.912V96.9965H153.368V94.1279H156.597V96.9965H158.05ZM144.699 96.9965L147.96 92.4161V96.9965H149.42V90.1633H147.925L144.756 94.5799V90.1633H143.296V96.9965H144.699ZM137.222 93.288V91.4409H138.771C139.03 91.4336 139.284 91.5209 139.483 91.6865C139.573 91.7749 139.645 91.8805 139.694 91.9969C139.743 92.1133 139.768 92.2382 139.768 92.3645C139.768 92.4907 139.743 92.6157 139.694 92.7321C139.645 92.8485 139.573 92.954 139.483 93.0425C139.284 93.208 139.03 93.2953 138.771 93.288H137.222ZM137.222 96.9965V94.5693H138.971C139.307 94.5757 139.641 94.514 139.953 94.3878C140.22 94.2785 140.463 94.1163 140.665 93.9109C140.862 93.7073 141.013 93.4648 141.11 93.1991C141.215 92.9265 141.268 92.6369 141.267 92.3449C141.269 92.0558 141.218 91.7688 141.117 91.4979C141.022 91.2324 140.871 90.9899 140.676 90.7861C140.473 90.5806 140.231 90.4184 139.964 90.3092C139.649 90.1901 139.314 90.1321 138.978 90.1383H135.773V96.9716L137.222 96.9965ZM133.491 96.9965V95.7153H130.106V94.1707H133.399V92.8859H130.084V91.4409H133.47V90.1633H128.646V96.9965H133.491ZM124.591 96.9965V91.4409H126.581V90.1633H121.119V91.4409H123.117V96.9965H124.591ZM117.805 88.9425L117.232 88.4585C117.094 88.6509 116.915 88.8102 116.708 88.9247C116.49 89.0427 116.244 89.1016 115.996 89.0956C115.754 89.1001 115.515 89.0443 115.3 88.9331C115.085 88.8218 114.901 88.6587 114.764 88.4585L114.173 88.9425C114.382 89.2181 114.649 89.4431 114.957 89.6009C115.272 89.7642 115.623 89.8473 115.978 89.8429C116.333 89.8479 116.683 89.7648 116.997 89.6009C117.308 89.4468 117.579 89.2212 117.787 88.9425H117.805ZM114.348 96.9965L117.609 92.4161V96.9965H119.065V90.1633H117.566L114.401 94.5799V90.1633H112.927V96.9965H114.348ZM110.67 96.9965V95.7153H107.267V94.1707H110.578V92.8859H107.267V91.4409H110.652V90.1633H105.81V96.9965H110.67ZM104.023 96.9965L101.122 93.3699L103.842 90.1668H102.044L99.6263 93.2204V90.1668H98.1523V97H99.6085V94.9003L100.143 94.2632L102.211 97L104.023 96.9965Z" fill="#A98A5B"/>
</g>
</g>
</g>
<defs>
<clipPath id="clip0_283_37">
<rect width="249" height="97" fill="white"/>
</clipPath>
</defs>
</svg>
